<?xml version="1.0" standalone="no"?>
<!DOCTYPE svg PUBLIC "-//W3C//DTD SVG 20010904//EN"
 "http://www.w3.org/TR/2001/REC-SVG-20010904/DTD/svg10.dtd">
<svg version="1.0" xmlns="http://www.w3.org/2000/svg"
 width="1080.000000pt" height="1080.000000pt" viewBox="0 0 1080.000000 1080.000000"
 preserveAspectRatio="xMidYMid meet">

<g transform="translate(0.000000,1080.000000) scale(0.100000,-0.100000)"
fill="#000000" stroke="none">
<path d="M2470 10789 c0 -6 -22 -32 -50 -59 -27 -27 -50 -55 -50 -63 0 -7 -9
-22 -20 -32 -11 -10 -22 -25 -25 -35 -3 -9 -16 -23 -30 -30 -13 -7 -29 -25
-35 -39 -10 -24 -40 -71 -76 -116 -8 -11 -24 -36 -35 -55 -11 -19 -31 -53 -44
-75 -13 -22 -35 -61 -49 -86 -13 -25 -32 -51 -40 -58 -9 -8 -16 -19 -16 -26 0
-6 -13 -32 -30 -56 -16 -24 -30 -51 -30 -60 0 -9 -8 -27 -18 -40 -10 -13 -24
-40 -32 -59 -7 -19 -19 -42 -26 -50 -8 -9 -20 -36 -29 -60 -9 -24 -22 -51 -29
-60 -8 -8 -19 -33 -25 -55 -6 -23 -19 -50 -30 -62 -11 -11 -25 -40 -31 -64 -7
-24 -20 -53 -30 -64 -9 -11 -20 -38 -23 -60 -4 -21 -15 -51 -25 -65 -11 -14
-25 -50 -31 -79 -14 -66 -39 -91 -59 -58 -11 19 -12 11 -6 -51 5 -65 4 -76
-14 -95 -11 -12 -23 -33 -27 -47 -4 -14 -13 -32 -20 -40 -18 -20 -53 -111 -69
-179 -8 -31 -21 -83 -31 -116 -34 -123 -75 -343 -95 -510 -6 -49 -16 -110 -22
-133 -7 -29 -9 -108 -5 -227 9 -262 27 -368 72 -430 12 -16 32 -68 45 -115 34
-124 116 -329 161 -400 5 -8 14 -26 20 -40 6 -14 15 -32 20 -40 5 -8 17 -28
27 -43 9 -15 40 -59 69 -97 60 -81 71 -121 53 -196 -8 -33 -11 -80 -7 -126 4
-41 0 -128 -8 -198 -7 -68 -12 -127 -9 -131 2 -3 9 -39 15 -80 9 -59 18 -81
42 -109 35 -39 123 -100 147 -100 8 0 30 -9 49 -21 45 -27 151 -67 231 -86 36
-8 76 -21 90 -28 14 -7 51 -16 82 -19 46 -6 66 -3 108 15 l51 22 37 -34 c20
-19 39 -38 41 -44 7 -18 234 -235 245 -235 6 0 16 -10 21 -22 6 -13 20 -24 31
-26 12 -2 26 -13 32 -26 10 -22 58 -41 64 -25 5 13 58 22 58 10 0 -6 -9 -11
-20 -11 -13 0 -20 -7 -20 -20 0 -16 7 -20 30 -20 17 0 30 5 30 11 0 6 14 9 33
7 36 -3 45 -31 12 -36 -42 -7 -46 -11 -35 -32 14 -26 41 -26 63 0 22 26 26 25
78 -10 24 -16 51 -30 60 -30 9 0 19 -6 22 -14 6 -16 -11 -36 -30 -36 -20 0
-15 -31 6 -37 11 -3 21 -13 24 -23 6 -22 102 -56 120 -42 7 5 24 12 39 16 23
5 28 2 38 -28 6 -18 26 -48 45 -65 19 -17 35 -36 35 -41 0 -20 -51 -90 -65
-90 -8 0 -61 -48 -117 -107 -153 -160 -208 -212 -239 -229 -16 -8 -29 -18 -29
-23 0 -12 -50 -75 -137 -174 -87 -97 -91 -120 -40 -188 94 -124 127 -170 127
-178 0 -4 8 -15 19 -25 10 -9 26 -34 36 -56 10 -22 22 -40 27 -40 5 0 16 -15
24 -32 8 -18 24 -46 37 -61 21 -27 22 -40 29 -275 4 -136 12 -310 16 -387 21
-335 43 -613 52 -645 5 -19 14 -96 20 -170 14 -179 28 -283 47 -352 14 -53 14
-62 -1 -107 -22 -69 -20 -80 19 -126 20 -22 40 -56 45 -75 5 -19 17 -45 25
-57 9 -13 28 -46 44 -75 15 -29 34 -63 41 -75 12 -19 12 -29 -3 -76 -22 -71
-22 -72 17 -95 39 -23 38 -21 56 -202 7 -63 16 -135 20 -160 5 -25 14 -103 20
-175 6 -72 16 -174 22 -228 9 -89 12 -97 29 -92 15 5 19 1 20 -17 0 -22 1 -22
10 -3 6 14 8 -1 4 -47 -3 -37 -3 -85 1 -107 l7 -41 463 0 464 0 0 70 c0 51 7
87 24 130 16 39 28 98 36 167 19 188 26 223 47 245 42 42 152 41 197 -1 23
-22 46 -122 46 -202 0 -22 6 -52 14 -67 8 -15 20 -66 26 -112 7 -47 18 -99 25
-116 7 -17 16 -50 20 -73 l7 -41 450 0 450 0 -7 83 c-5 45 -7 206 -5 357 6
483 5 625 -3 646 -5 15 1 29 28 58 19 21 35 44 35 52 0 14 -55 100 -71 109
-14 9 -11 83 4 88 6 2 35 -8 62 -23 28 -15 76 -33 108 -40 52 -12 67 -12 122
3 84 23 101 22 127 -8 26 -30 92 -36 102 -9 12 31 6 71 -19 120 -30 59 -32 96
-6 138 11 17 25 63 31 101 6 39 17 95 25 125 7 30 17 82 20 115 4 33 18 81 31
107 31 62 31 124 0 219 -54 166 -85 317 -86 418 0 41 -51 246 -84 340 -9 24
-16 52 -16 63 0 10 -9 44 -20 76 -12 31 -27 88 -35 125 -8 37 -21 80 -29 95
-8 15 -20 56 -26 92 -7 36 -21 82 -31 102 -25 50 -24 89 6 154 14 30 25 61 25
68 0 8 11 38 25 67 13 29 27 78 31 108 4 40 16 71 41 107 35 52 40 72 28 111
-5 16 0 29 19 48 45 45 50 62 27 99 -12 18 -21 44 -21 58 0 13 -8 35 -17 48
-27 37 -106 110 -119 110 -6 0 -28 13 -48 29 -20 16 -51 33 -69 37 -17 3 -46
17 -63 31 -47 36 -159 145 -172 168 -8 15 -21 20 -54 20 -28 0 -55 8 -73 21
-17 12 -43 26 -60 31 -38 12 -46 53 -16 80 11 10 53 50 93 89 40 39 91 80 114
92 22 11 46 28 53 36 8 9 19 16 25 16 12 0 44 24 110 81 22 19 55 45 71 58 68
51 225 213 312 321 29 36 68 78 88 93 19 15 42 41 50 57 14 27 20 30 65 30 93
0 222 34 345 91 37 17 87 30 128 34 76 7 167 46 167 71 0 8 -13 23 -30 32 -16
9 -30 20 -30 25 0 4 22 21 49 37 56 35 70 63 95 183 18 86 22 322 6 376 -11
39 -7 49 13 32 18 -15 47 -4 47 18 0 9 -9 31 -20 49 -11 18 -20 41 -20 51 0
10 -9 26 -19 35 -11 10 -25 32 -32 49 -7 18 -30 52 -51 76 -21 25 -38 54 -38
68 0 30 21 72 49 97 11 10 26 35 32 55 7 20 20 47 30 60 11 13 19 29 19 37 0
7 12 26 26 43 20 24 28 48 35 109 5 42 18 104 29 137 22 69 45 238 35 263 -3
9 -11 143 -16 297 -24 691 -38 876 -73 964 -14 36 -26 72 -26 80 0 9 -11 39
-23 66 -13 28 -27 65 -30 83 -4 19 -18 47 -32 64 -14 16 -25 37 -25 47 0 9
-11 32 -25 51 -14 19 -25 41 -25 50 0 8 -8 29 -17 46 -17 29 -85 148 -143 248
-14 24 -43 67 -66 97 -23 30 -73 97 -112 149 -38 52 -88 118 -110 147 -23 28
-47 63 -54 76 -17 33 -182 204 -332 345 -67 63 -122 120 -124 128 -3 12 -278
14 -1963 14 -1408 0 -1959 -3 -1959 -11z m2318 -378 c31 -17 24 -32 -23 -48
-22 -7 -49 -22 -60 -33 -12 -11 -30 -20 -42 -20 -11 0 -37 -11 -57 -25 -20
-14 -41 -25 -46 -25 -5 0 -21 -11 -37 -24 -15 -13 -39 -27 -53 -31 -14 -4 -38
-18 -53 -31 -16 -13 -34 -24 -40 -24 -7 0 -26 -13 -44 -28 -48 -42 -83 -68
-148 -113 -33 -23 -65 -49 -72 -59 -6 -9 -31 -29 -55 -45 -49 -33 -148 -117
-224 -190 -29 -27 -91 -86 -139 -130 -161 -149 -257 -248 -459 -475 -37 -41
-87 -96 -112 -122 -24 -26 -44 -51 -44 -55 0 -4 -9 -16 -21 -28 -41 -41 -212
-262 -241 -312 -16 -29 -34 -53 -39 -53 -6 0 -16 -15 -24 -34 -8 -18 -21 -36
-30 -39 -8 -4 -15 -12 -15 -19 -1 -7 -14 -29 -30 -48 -17 -19 -30 -42 -30 -52
0 -9 -11 -28 -25 -40 -17 -16 -23 -29 -19 -46 8 -27 21 -29 28 -4 4 10 31 45
61 77 30 32 55 63 55 70 0 7 29 48 66 92 36 43 73 88 82 101 9 13 24 31 32 40
8 10 26 33 40 52 14 19 30 42 37 50 7 8 45 53 84 100 85 103 185 215 259 291
30 31 93 98 140 149 47 51 101 107 119 124 41 37 117 106 221 202 101 93 223
199 277 241 59 45 149 118 161 130 7 7 17 13 21 13 5 0 19 10 33 23 23 20 141
109 177 132 8 6 33 22 54 38 22 15 48 27 57 27 10 0 23 7 31 16 7 8 30 24 51
35 21 11 38 23 38 28 0 5 20 17 45 26 25 10 50 24 56 31 20 25 165 18 259 -12
64 -20 84 -23 96 -13 11 9 32 6 96 -11 46 -12 113 -28 150 -35 36 -8 95 -25
130 -39 35 -14 79 -29 98 -32 40 -8 150 -62 165 -81 6 -7 22 -21 36 -31 120
-79 145 -96 149 -102 7 -11 108 -56 144 -64 16 -4 41 -16 54 -27 14 -10 28
-19 32 -19 22 0 160 -105 160 -121 0 -4 25 -32 56 -61 32 -29 68 -75 81 -103
13 -27 37 -72 53 -100 35 -60 44 -80 60 -122 7 -18 16 -33 21 -33 5 0 9 -19
10 -42 0 -28 11 -65 32 -104 44 -85 144 -288 172 -349 13 -27 26 -72 30 -100
4 -27 13 -62 21 -78 8 -15 19 -80 25 -144 6 -64 16 -131 24 -149 7 -18 17 -55
20 -81 3 -26 13 -95 22 -153 18 -120 12 -351 -13 -484 -8 -43 -15 -95 -15
-115 -1 -20 -3 -27 -5 -16 -3 11 -12 47 -22 80 -14 49 -17 104 -17 295 l-1
235 -29 53 c-26 49 -30 52 -42 36 -18 -25 -16 -61 6 -108 26 -57 45 -356 28
-436 -23 -104 -54 -56 -56 87 -1 28 -5 55 -11 58 -14 9 -28 69 -40 177 -6 56
-20 118 -32 145 -17 37 -22 72 -24 153 -2 58 -6 121 -9 140 -8 45 -64 190 -82
212 -8 9 -21 46 -30 82 -8 36 -18 66 -23 66 -5 0 -16 20 -26 45 -10 28 -28 52
-48 64 -46 29 -93 81 -111 124 -8 20 -20 37 -25 37 -6 0 -16 12 -23 27 -6 15
-24 41 -39 57 -16 17 -28 36 -28 43 0 7 -9 17 -20 23 -11 6 -20 17 -20 24 0 7
-9 24 -20 37 -40 47 -90 119 -90 129 0 6 -11 20 -25 32 -14 12 -25 26 -25 31
0 5 -13 25 -30 44 -16 18 -30 40 -30 48 0 8 -11 22 -25 31 -14 9 -25 22 -25
29 0 7 -25 38 -55 70 -30 31 -55 60 -55 64 0 12 -142 151 -154 151 -26 -1 -35
-15 -23 -36 22 -38 82 -118 108 -146 14 -14 38 -41 53 -60 16 -18 47 -53 70
-78 23 -25 50 -58 61 -74 40 -58 71 -103 93 -139 13 -20 28 -37 33 -37 5 0 15
-15 23 -33 7 -19 25 -45 40 -60 14 -14 26 -33 26 -41 0 -9 9 -20 20 -26 11 -6
20 -16 20 -23 0 -7 13 -28 30 -47 16 -19 29 -39 30 -44 0 -5 16 -33 35 -62 19
-29 35 -57 35 -62 0 -5 7 -12 15 -16 8 -3 21 -18 27 -33 7 -15 22 -37 35 -48
37 -33 120 -206 128 -266 3 -30 13 -69 21 -87 9 -18 18 -49 21 -68 5 -29 3
-33 -11 -28 -14 5 -21 35 -17 71 1 7 -12 19 -29 28 -18 9 -32 26 -36 43 -4 15
-15 36 -25 47 -10 11 -25 37 -33 57 -9 20 -20 39 -26 43 -5 3 -22 31 -37 61
-14 30 -30 54 -34 54 -4 0 -11 10 -15 23 -4 12 -29 50 -55 83 -27 34 -49 66
-49 71 0 5 -14 24 -30 43 -64 74 -140 176 -140 188 0 6 -4 12 -9 12 -5 0 -28
24 -50 53 -51 66 -90 112 -117 140 -12 12 -66 72 -120 132 -54 61 -118 130
-141 154 -24 24 -43 46 -43 49 0 8 -107 106 -163 150 -26 20 -67 54 -90 75
-23 21 -66 49 -96 63 l-53 25 26 26 c56 56 2 68 -99 22 -39 -17 -81 -40 -94
-50 -13 -11 -31 -19 -41 -19 -10 0 -29 -9 -43 -20 -14 -12 -36 -26 -49 -33
-99 -54 -233 -141 -333 -216 -37 -28 -61 -46 -141 -103 -93 -67 -183 -140
-188 -153 -3 -8 -12 -15 -20 -15 -8 0 -19 -6 -23 -13 -4 -7 -37 -34 -73 -60
-36 -25 -74 -53 -85 -62 -11 -8 -47 -34 -80 -58 -33 -24 -82 -69 -110 -101
-62 -70 -151 -139 -170 -132 -18 6 -8 36 11 36 8 0 18 10 23 23 5 13 21 31 35
40 14 10 26 23 26 31 0 7 11 18 25 24 14 6 25 18 25 26 0 8 8 17 18 20 9 4 35
28 57 56 22 27 47 52 55 54 8 3 27 16 42 28 15 13 49 41 75 62 26 22 68 63 93
92 25 29 53 55 63 57 10 3 17 15 17 31 0 32 -5 32 -55 1 -22 -13 -51 -30 -65
-37 -21 -11 -119 -99 -219 -199 -14 -14 -46 -41 -71 -59 -45 -35 -66 -53 -195
-172 -62 -58 -193 -176 -220 -198 -5 -4 -41 -42 -80 -84 -38 -42 -101 -110
-140 -150 -64 -66 -99 -106 -162 -181 -13 -15 -23 -31 -23 -36 0 -5 -12 -14
-26 -19 -16 -6 -24 -16 -22 -27 6 -29 29 -26 41 6 7 19 18 31 29 31 10 0 24
11 30 25 6 14 18 25 25 25 8 0 20 14 26 30 7 18 19 30 29 30 10 0 20 10 24 25
4 18 13 25 30 25 15 0 24 6 24 16 0 9 14 21 30 27 17 6 30 19 30 28 0 19 24
42 33 32 16 -16 3 -42 -53 -103 -82 -90 -100 -110 -100 -114 0 -2 -23 -28 -50
-56 -28 -29 -55 -61 -61 -71 -5 -11 -16 -19 -24 -19 -8 0 -21 -10 -29 -21 -18
-27 -51 -19 -43 11 3 10 -1 24 -8 30 -11 9 -17 5 -29 -17 -18 -34 -130 -151
-170 -179 -16 -10 -40 -27 -55 -37 -20 -13 -40 -16 -83 -13 l-57 4 -38 -51
c-64 -89 -145 -250 -163 -326 -8 -35 -10 -81 -6 -132 7 -86 -2 -122 -60 -246
-40 -84 -41 -94 -14 -118 11 -10 22 -27 26 -39 3 -11 14 -29 23 -40 10 -11 18
-46 23 -95 3 -42 9 -97 13 -122 5 -31 3 -49 -4 -53 -6 -4 -11 -37 -11 -78 0
-70 0 -70 -25 -64 -14 4 -37 0 -53 -7 -15 -8 -44 -17 -66 -20 -34 -5 -42 -3
-64 23 -15 17 -33 30 -40 30 -9 0 -13 10 -11 28 1 15 -1 40 -6 55 -7 26 -9 27
-30 13 -29 -19 -40 -8 -54 54 -25 106 1 263 34 209 4 -6 15 -43 25 -82 l18
-72 2 45 c2 25 2 90 1 145 -5 240 25 436 91 600 11 28 26 77 33 110 7 33 23
80 34 105 11 25 21 58 21 74 0 16 10 44 21 63 12 20 26 55 30 80 5 24 18 56
29 70 11 14 20 33 20 43 0 9 11 39 25 66 14 27 30 67 36 89 6 22 19 51 29 65
10 14 21 39 24 57 4 17 14 37 22 44 7 6 20 33 28 59 8 27 24 58 35 69 14 14
21 34 21 62 0 53 -20 48 -40 -12 -8 -24 -25 -54 -37 -67 -13 -12 -23 -28 -23
-36 0 -7 -11 -29 -24 -49 -13 -19 -27 -46 -31 -58 -4 -13 -16 -36 -26 -51 -11
-14 -22 -41 -26 -60 -3 -18 -14 -41 -24 -51 -10 -9 -25 -40 -33 -67 -8 -28
-24 -63 -34 -78 -10 -15 -24 -47 -31 -72 -7 -25 -17 -50 -22 -56 -5 -7 -16
-38 -25 -70 -8 -32 -21 -65 -29 -74 -7 -8 -19 -46 -26 -85 -7 -40 -21 -82 -33
-98 -12 -15 -31 -40 -42 -55 -29 -37 -44 -115 -44 -228 0 -93 -9 -131 -36
-147 -8 -4 -14 -16 -15 -25 0 -14 -2 -13 -9 3 -20 45 3 371 31 445 8 22 27
110 31 147 1 7 7 14 15 17 17 7 18 152 2 281 -12 95 -2 216 26 320 8 28 17 75
20 105 4 30 15 71 24 90 10 19 23 51 30 71 6 20 21 45 31 54 29 27 25 62 -12
100 -41 41 -60 73 -53 85 8 13 35 13 35 0 0 -21 37 -9 48 15 7 14 18 28 26 31
8 3 20 22 27 42 6 21 18 44 25 52 32 35 202 236 229 271 17 21 38 41 47 44 9
3 25 20 36 38 31 52 100 125 173 183 37 30 71 54 75 54 5 0 38 20 75 45 37 25
101 61 141 79 177 82 288 130 353 151 39 12 93 33 120 45 127 58 153 68 190
75 22 4 59 18 83 32 43 25 47 26 125 16 55 -8 83 -16 89 -27 12 -21 72 -21 93
0 13 13 14 19 4 25 -19 11 -4 22 28 21 114 -3 168 0 178 8 35 29 414 38 463
11z m416 -381 c72 -68 97 -89 116 -95 11 -3 20 -11 20 -16 0 -9 90 -100 211
-214 35 -33 90 -91 123 -130 32 -38 64 -74 71 -80 22 -17 148 -169 224 -270
17 -22 37 -49 46 -60 95 -126 234 -312 247 -333 21 -32 34 -51 68 -101 14 -20
48 -73 74 -118 27 -46 55 -88 62 -94 8 -6 14 -17 14 -23 0 -6 11 -27 24 -46
12 -19 29 -53 36 -75 7 -22 17 -45 22 -52 5 -7 18 -74 29 -150 10 -76 25 -160
34 -187 17 -57 20 -139 5 -167 -11 -20 -30 -26 -30 -9 0 6 -11 28 -25 50 -14
21 -29 61 -35 87 -24 109 -141 303 -207 344 -27 17 -42 19 -87 14 -62 -8 -77
-2 -156 65 -60 51 -139 94 -191 105 -19 4 -49 15 -67 26 -42 24 -178 59 -230
59 -22 0 -68 -13 -107 -31 -37 -16 -103 -39 -146 -50 -43 -10 -99 -30 -126
-43 -26 -13 -73 -36 -105 -49 -77 -34 -173 -133 -273 -280 -44 -66 -85 -127
-91 -138 -6 -10 -18 -27 -27 -37 -10 -10 -24 -40 -33 -65 -21 -63 -44 -77
-125 -77 -67 0 -158 28 -259 80 -39 20 -90 80 -90 105 0 18 -116 137 -154 157
-13 7 -45 41 -69 75 -25 33 -55 64 -68 68 -12 4 -44 25 -73 46 -28 21 -56 39
-63 39 -7 0 -34 8 -60 17 -26 10 -70 17 -98 18 -49 0 -50 1 -53 32 -3 29 -8
34 -43 43 -50 14 -69 7 -94 -32 -23 -36 -55 -48 -103 -37 -38 8 -64 36 -58 62
2 10 -4 21 -14 27 -12 6 -16 17 -13 33 5 27 122 145 163 165 50 24 95 57 124
92 34 39 137 141 193 190 28 25 77 68 110 96 136 120 176 154 284 239 62 50
123 100 135 113 12 12 26 22 32 22 6 0 19 10 29 23 10 12 30 30 45 40 15 9 63
46 105 80 43 35 89 70 103 77 31 16 112 81 123 98 4 6 13 12 19 12 5 0 24 12
42 26 55 45 166 123 199 140 18 10 53 35 78 56 69 58 127 72 163 38z m-3098
-957 c-7 -73 -15 -108 -37 -158 -5 -11 -13 -48 -18 -82 -5 -34 -16 -72 -25
-85 -8 -13 -20 -67 -26 -121 -6 -55 -18 -118 -26 -140 -8 -23 -22 -91 -29
-152 -8 -60 -21 -137 -30 -170 -20 -84 -35 -271 -36 -460 0 -88 -4 -180 -7
-205 l-7 -45 -18 37 c-9 20 -17 45 -17 57 0 12 -2 21 -4 21 -2 0 -12 3 -22 7
-16 6 -16 -2 -10 -102 4 -60 14 -125 21 -144 8 -20 19 -65 25 -101 7 -35 20
-76 30 -90 10 -14 20 -54 24 -92 4 -37 12 -70 17 -73 15 -10 31 -85 24 -116
-9 -39 -21 -37 -35 5 -6 19 -20 46 -32 61 -11 14 -26 53 -34 87 -8 34 -18 67
-23 72 -4 6 -13 31 -20 56 -7 25 -21 68 -32 95 -10 28 -25 91 -33 140 -9 50
-23 122 -32 160 -27 116 -7 373 26 339 5 -5 11 -61 15 -124 7 -115 16 -150 37
-150 13 0 3 246 -14 325 -16 74 -21 305 -9 414 24 222 39 288 90 394 27 56 61
115 75 130 14 15 26 33 26 39 0 14 67 135 94 170 12 15 29 38 39 52 32 46 40
32 33 -51z m1284 -248 c0 -8 -7 -15 -15 -15 -8 0 -15 7 -15 15 0 8 7 15 15 15
8 0 15 -7 15 -15z m-167 -432 c-7 -2 -19 -2 -25 0 -7 3 -2 5 12 5 14 0 19 -2
13 -5z m3516 -433 c-1 -36 -5 -78 -8 -95 l-7 -30 -7 40 c-17 108 -19 146 -6
161 19 24 29 -2 28 -76z m-1712 -162 c19 -18 28 -20 51 -12 21 8 34 6 60 -10
36 -21 46 -39 67 -130 15 -65 8 -96 -24 -96 -10 0 -29 -8 -42 -19 -13 -10 -42
-27 -64 -39 -53 -27 -80 -58 -96 -110 -18 -63 -34 -71 -69 -37 -41 39 -63 120
-64 230 -1 121 7 154 55 213 37 48 41 50 71 41 17 -4 42 -18 55 -31z m-2286
-70 c28 -28 61 -68 75 -89 23 -36 63 -68 65 -52 0 4 5 -5 10 -22 11 -39 -4
-53 -25 -23 -20 28 -28 19 -51 -58 -14 -49 -41 -74 -79 -74 -8 0 -33 -25 -57
-55 -24 -30 -49 -54 -55 -55 -5 0 -26 15 -46 33 -42 38 -54 95 -43 202 12 110
90 245 142 245 8 0 37 -23 64 -52z m2598 -48 c0 -14 -4 -33 -8 -43 -6 -15 -9
-13 -23 16 -15 31 -15 37 -1 57 12 17 17 19 24 9 5 -8 8 -25 8 -39z m1345
-162 c9 -12 16 -43 16 -68 1 -25 8 -63 16 -85 19 -47 32 -109 39 -185 4 -30
15 -93 25 -140 17 -79 41 -315 40 -403 0 -24 8 -49 23 -68 21 -29 22 -39 20
-182 -4 -203 -16 -245 -60 -198 -19 21 -19 21 -61 -40 -23 -33 -42 -65 -42
-70 0 -27 -71 -142 -127 -207 -34 -39 -69 -84 -77 -100 -16 -30 -134 -137
-177 -162 -39 -21 -303 -226 -446 -346 -113 -93 -306 -177 -452 -196 -41 -5
-82 -13 -92 -18 -9 -5 -61 -17 -116 -25 -54 -9 -147 -27 -208 -41 -60 -14
-138 -32 -172 -39 -35 -8 -69 -12 -75 -10 -7 3 -101 7 -208 10 -291 7 -372 16
-408 42 -18 13 -58 27 -97 33 -37 6 -79 17 -94 24 -14 7 -58 16 -98 20 -40 4
-103 16 -140 27 -37 12 -103 30 -146 40 -43 11 -86 23 -96 28 -9 5 -55 17
-102 27 -80 16 -184 58 -218 88 -9 7 -33 19 -53 25 -35 12 -116 68 -184 129
-17 15 -49 43 -72 61 -44 37 -59 64 -117 201 -20 47 -42 96 -50 110 -7 14 -21
51 -30 83 -9 32 -34 89 -55 127 -22 37 -42 81 -46 96 -4 16 -18 50 -31 77 -17
35 -24 67 -26 120 -2 71 -1 73 46 144 67 100 117 233 89 233 -5 0 -30 -7 -56
-16 -26 -9 -49 -14 -52 -12 -2 3 -6 41 -8 85 -3 85 -9 103 -31 103 -33 0 -57
77 -39 124 9 24 22 20 58 -19 30 -31 39 -35 84 -35 49 0 102 -16 102 -30 0
-15 251 -132 292 -137 24 -3 75 -15 113 -28 53 -17 97 -24 180 -26 192 -5 276
-1 349 16 39 9 80 18 91 20 12 3 50 23 85 46 36 23 89 50 118 60 92 32 307
235 354 336 12 25 34 54 50 66 33 24 58 75 58 116 0 29 29 82 68 124 31 33 86
38 101 8 6 -10 23 -23 38 -29 16 -5 38 -19 50 -31 12 -12 26 -21 31 -21 14 0
92 -63 92 -75 1 -22 138 -212 215 -297 35 -39 58 -53 117 -74 40 -14 89 -29
108 -33 46 -10 62 -19 93 -57 15 -17 48 -39 74 -48 26 -10 73 -28 103 -41 86
-36 235 -49 412 -37 125 10 153 15 195 37 59 31 157 75 167 75 5 0 37 25 72
56 49 44 73 75 105 138 23 44 57 110 76 145 34 64 74 186 88 268 8 52 30 72
87 82 4 0 14 -9 22 -21z m313 -40 c-3 -8 -6 -5 -6 6 -1 11 2 17 5 13 3 -3 4
-12 1 -19z m299 -546 c51 -44 92 -143 102 -247 5 -51 5 -103 0 -120 -5 -16
-11 -82 -15 -145 -4 -83 -11 -125 -24 -152 -35 -68 -193 -163 -262 -156 -31 3
-32 5 -37 57 -4 47 -7 52 -18 38 -8 -9 -34 -26 -59 -38 -60 -29 -71 -17 -50
53 9 29 21 107 28 173 6 66 16 137 21 157 11 48 45 85 84 93 43 8 58 -13 59
-88 0 -66 11 -77 66 -69 23 3 29 10 34 43 5 27 2 45 -9 61 -19 26 -20 60 -5
102 10 29 8 34 -24 69 -38 42 -60 44 -102 7 -21 -18 -82 -50 -97 -50 -19 0 -6
62 25 116 39 72 88 102 123 79 19 -12 23 -11 43 16 28 38 74 39 117 1z m-4980
-264 c5 -7 9 -55 9 -108 1 -52 9 -144 18 -205 8 -60 20 -146 27 -190 6 -44 17
-102 25 -130 17 -59 27 -158 19 -180 -9 -22 -61 -18 -96 8 -16 12 -55 45 -86
73 -32 28 -79 61 -106 74 -41 19 -52 31 -72 76 -12 28 -27 55 -33 58 -5 3 -12
25 -16 49 -3 23 -13 64 -22 90 -13 41 -13 66 -4 162 15 152 20 173 42 180 21
7 73 -25 88 -53 5 -9 12 -38 15 -64 7 -46 25 -67 27 -30 4 109 12 178 21 189
14 17 134 18 144 1z m-433 -296 c-2 -75 -5 -148 -9 -162 -12 -52 -26 11 -31
139 -5 133 6 196 30 172 8 -9 11 -52 10 -149z m4957 -301 c0 -6 -4 -13 -10
-16 -5 -3 -10 1 -10 9 0 9 5 16 10 16 6 0 10 -4 10 -9z m180 -45 c0 -16 -41
-29 -66 -19 -16 6 -16 7 2 20 24 17 64 17 64 -1z m-5031 -19 c7 -19 30 -50 91
-124 13 -16 13 -33 -1 -33 -6 0 -13 9 -16 20 -3 11 -14 20 -24 20 -11 0 -24
11 -31 25 -6 14 -17 25 -23 25 -18 0 -32 20 -40 58 -6 28 -4 32 14 32 13 0 25
-9 30 -23z m-157 -87 c2 -17 -2 -25 -12 -25 -10 0 -16 12 -18 40 -3 36 -2 38
12 25 8 -8 17 -26 18 -40z m46 -37 c11 -22 5 -43 -13 -43 -13 0 -25 21 -25 46
0 20 28 17 38 -3z m342 -88 c7 -8 19 -15 26 -15 8 0 35 -13 61 -29 27 -16 64
-34 84 -40 49 -16 73 -66 43 -88 -24 -18 -80 -10 -108 15 -12 11 -31 23 -44
27 -24 7 -112 89 -112 104 0 5 -3 16 -6 25 -8 21 39 22 56 1z m1229 -798 c8
-10 7 -19 -4 -33 -13 -18 -15 -18 -31 -2 -18 18 -13 48 9 48 8 0 20 -6 26 -13z
m2198 -109 c-3 -7 -5 -2 -5 12 0 14 2 19 5 13 2 -7 2 -19 0 -25z m-531 -23
c21 -21 24 -31 18 -58 -6 -31 -21 -50 -117 -152 -26 -27 -47 -55 -47 -61 0 -7
-25 -34 -54 -62 -53 -48 -58 -50 -128 -56 -40 -4 -97 -3 -125 2 -49 8 -53 7
-59 -12 -4 -12 -12 -24 -18 -28 -21 -15 -73 -8 -97 13 -13 11 -40 31 -59 44
-195 133 -216 152 -205 184 9 28 74 29 99 2 10 -10 26 -21 37 -24 18 -5 19 -2
14 37 -6 40 -5 44 28 69 20 15 42 27 51 27 8 0 45 17 83 37 l68 38 190 2 c105
1 210 6 235 11 25 5 49 10 53 11 4 0 19 -10 33 -24z m-1026 -69 c0 -8 -4 -18
-10 -21 -5 -3 -10 3 -10 14 0 12 5 21 10 21 6 0 10 -6 10 -14z m1439 -30 c28
-29 34 -44 41 -103 4 -38 12 -78 17 -89 6 -10 14 -46 17 -79 4 -33 14 -95 22
-139 8 -43 14 -87 14 -97 0 -25 -42 -35 -72 -16 -12 8 -41 18 -63 22 -22 4
-60 16 -84 27 -32 14 -69 21 -131 22 l-87 2 -12 -66 c-7 -36 -15 -71 -19 -77
-8 -12 -143 -35 -212 -36 -19 0 -55 4 -80 9 -53 12 -328 1 -398 -15 -43 -10
-249 -35 -417 -50 l-70 -6 85 -9 c47 -5 191 -10 321 -11 130 -1 242 -6 248 -9
20 -13 12 -36 -16 -47 -16 -6 -38 -20 -50 -31 -21 -20 -29 -21 -95 -12 -63 8
-219 6 -563 -8 l-80 -3 -3 46 c-2 33 2 51 13 63 14 13 15 22 6 48 -16 45 -14
69 10 122 15 35 19 57 14 87 -4 24 -2 52 5 68 10 24 20 30 73 41 34 7 74 19
89 27 51 25 76 17 134 -42 58 -60 64 -73 37 -81 -64 -21 -73 -27 -62 -40 7 -9
32 -14 68 -14 38 0 83 -9 132 -27 69 -25 85 -27 239 -28 120 0 171 4 189 13
31 18 16 31 -44 40 -50 7 -76 32 -33 32 13 0 39 10 58 23 19 13 67 29 105 36
43 8 107 32 169 62 54 27 107 49 117 49 23 0 26 -32 4 -50 -8 -7 -15 -23 -15
-36 0 -21 5 -24 34 -24 27 0 39 7 56 30 28 39 76 40 153 4 42 -19 69 -24 108
-22 67 4 84 25 50 62 -25 26 -58 40 -123 51 -27 4 -38 11 -38 23 0 32 20 41
72 35 54 -7 68 2 68 45 0 15 -11 29 -35 43 -31 19 -35 26 -35 63 0 29 -6 47
-20 59 -27 23 -15 47 24 47 23 0 41 -9 65 -34z m-285 -31 c3 -10 -16 -37 -54
-77 -33 -34 -60 -70 -60 -79 0 -10 -20 -32 -44 -48 -34 -24 -50 -29 -67 -23
-15 6 -18 11 -11 16 7 4 12 14 12 22 0 20 181 203 201 204 9 0 19 -7 23 -15z
m-1197 -110 c3 -10 -8 -28 -33 -50 -41 -36 -63 -42 -81 -24 -13 13 1 56 26 77
21 17 80 15 88 -3z m-651 -191 c-3 -9 -6 -22 -6 -30 0 -9 -12 -14 -36 -14 -31
0 -35 2 -24 15 7 8 19 15 27 15 7 0 16 7 19 15 4 8 11 15 16 15 6 0 7 -7 4
-16z m41 10 c-3 -3 -12 -4 -19 -1 -8 3 -5 6 6 6 11 1 17 -2 13 -5z m1904 -205
c3 -8 11 -27 16 -44 7 -26 13 -30 46 -31 21 -1 45 -8 54 -17 14 -14 14 -18 -5
-45 l-21 -29 37 -19 c31 -17 37 -26 40 -58 5 -54 -38 -115 -82 -118 -56 -3
-120 3 -155 14 l-34 11 31 26 c25 21 32 35 34 71 3 38 7 47 32 59 24 11 26 15
13 22 -24 14 -67 95 -67 128 0 44 43 66 61 30z m869 -35 c51 -35 69 -84 30
-84 -11 0 -20 4 -20 10 0 5 -13 16 -30 25 -28 14 -39 43 -23 58 10 10 16 9 43
-9z m-2924 -19 c4 -8 0 -22 -7 -31 -11 -13 -14 -13 -27 0 -17 17 -9 46 13 46
9 0 18 -7 21 -15z m156 -80 c-2 -17 -10 -34 -19 -40 -9 -5 -34 -28 -55 -50
-31 -33 -40 -38 -55 -29 -10 6 -19 18 -21 27 -4 20 54 86 83 93 13 3 26 12 29
21 3 8 14 13 23 11 13 -3 17 -12 15 -33z m1686 -79 c6 -29 -10 -36 -66 -29
-41 4 -52 10 -50 22 6 33 110 40 116 7z m1116 -47 c27 -25 -41 -102 -69 -79
-17 14 -19 38 -5 75 8 22 14 24 37 19 16 -4 32 -10 37 -15z m-1503 -14 c-1
-15 -24 -12 -29 3 -3 9 2 13 12 10 10 -1 17 -7 17 -13z m404 -45 c-9 -10 -30
-22 -46 -25 -16 -4 -42 -17 -57 -29 -15 -13 -38 -27 -52 -31 -14 -4 -37 -16
-51 -26 -15 -10 -44 -22 -65 -27 -29 -6 -41 -14 -48 -35 -5 -15 -8 -29 -5 -31
3 -3 38 2 79 11 115 25 115 25 118 -23 3 -37 -1 -44 -29 -65 -30 -21 -42 -22
-248 -25 -298 -5 -540 -13 -578 -20 -35 -7 -45 -32 -20 -51 12 -10 288 -27
615 -38 157 -5 175 -9 234 -41 45 -25 58 -97 20 -108 -10 -3 -165 -10 -347
-17 -303 -10 -341 -14 -459 -40 -71 -16 -131 -31 -133 -33 -10 -9 164 -17 499
-21 416 -6 794 -22 820 -36 10 -5 77 -14 150 -20 121 -9 162 -19 146 -35 -20
-19 -194 -25 -633 -19 -532 8 -791 -2 -922 -35 -43 -10 -105 -22 -138 -26 -33
-3 -75 -10 -94 -16 -30 -9 -32 -11 -17 -26 14 -14 36 -16 139 -13 67 1 136 4
152 7 44 5 683 3 1140 -5 376 -6 400 -7 403 -24 2 -10 1 -29 -2 -42 -5 -19
-14 -24 -58 -29 -29 -3 -334 -10 -678 -16 -344 -6 -695 -15 -780 -20 -235 -16
-393 -31 -417 -40 -36 -15 -57 19 -49 77 4 27 9 113 12 193 2 80 6 151 9 158
3 8 8 50 11 95 3 45 12 110 20 145 8 35 14 88 14 118 0 31 5 65 12 77 6 12 15
46 19 76 4 30 14 59 21 66 9 9 41 11 106 7 88 -4 92 -5 92 -28 0 -46 24 -49
310 -46 181 1 274 -1 293 -9 38 -16 65 8 59 51 -6 42 13 63 51 54 79 -17 157
-4 200 35 13 11 40 16 88 17 52 0 74 5 87 18 15 15 17 15 20 1 2 -9 -4 -25
-13 -35z m-1707 7 c17 -20 25 -118 13 -149 -14 -36 -26 -35 -40 3 -6 17 -22
44 -36 61 -36 43 -33 75 8 87 44 13 43 13 55 -2z m2243 -36 c30 -31 37 -67 19
-101 -10 -19 -90 -60 -116 -60 -7 0 -30 26 -51 57 -21 31 -42 62 -47 69 -6 8
-4 21 7 38 16 24 23 26 88 26 65 0 73 -2 100 -29z m-425 -71 c42 -16 55 -39
48 -85 -4 -22 -10 -45 -14 -50 -5 -6 -15 -30 -24 -54 -14 -42 -14 -46 5 -58
25 -18 24 -47 -2 -72 -26 -24 -17 -41 19 -41 18 0 43 15 75 46 l49 45 -7 72
c-7 84 4 113 32 85 13 -13 17 -33 16 -75 -1 -46 3 -62 22 -85 28 -33 24 -57
-17 -110 -48 -61 -195 -98 -246 -62 -39 27 -46 51 -23 80 14 18 18 34 14 55
-4 23 0 36 17 54 20 21 21 25 6 25 -9 0 -28 11 -41 25 -22 21 -25 33 -25 93 0
39 -5 73 -12 80 -29 29 53 53 108 32z m462 -177 c15 -19 10 -99 -7 -116 -12
-12 -110 11 -133 31 -18 15 -24 65 -12 97 9 23 133 14 152 -12z m374 -156 c4
-361 -3 -640 -16 -727 -9 -52 -20 -195 -26 -318 -6 -123 -13 -237 -17 -255
-15 -79 -53 -116 -102 -99 -43 15 -130 111 -138 152 -3 19 -1 98 6 175 7 77
16 201 20 275 9 137 16 172 45 228 9 17 16 43 16 57 0 15 14 61 31 103 25 63
31 93 32 164 2 72 5 90 23 110 11 13 26 42 33 65 6 24 21 47 31 53 14 8 20 21
20 46 0 41 17 77 31 68 5 -3 10 -47 11 -97z m-2634 -60 c7 -15 17 -27 22 -27
5 0 25 -35 45 -77 43 -94 53 -189 56 -541 1 -128 5 -252 10 -276 4 -23 13
-128 19 -232 6 -104 15 -203 20 -221 13 -50 -3 -153 -25 -166 -19 -10 -33 -23
-89 -86 -38 -42 -52 -29 -59 57 -3 37 -12 123 -21 192 -8 69 -20 206 -26 305
-6 99 -20 240 -31 314 -11 74 -24 209 -30 300 -5 91 -12 173 -15 181 -10 28
-27 165 -28 230 -1 64 0 65 24 62 14 -1 27 -7 28 -12 6 -16 28 -11 47 10 23
25 36 22 53 -13z m2192 -24 c66 -7 80 -16 80 -53 0 -46 -18 -52 -122 -45 -51
4 -98 12 -105 17 -16 13 -9 55 13 79 14 16 26 19 49 14 16 -3 55 -9 85 -12z
m-802 -608 c747 0 854 -2 862 -15 17 -26 12 -126 -7 -141 -13 -12 -151 -14
-817 -12 -667 1 -828 -1 -965 -15 -158 -15 -164 -15 -177 3 -18 24 -19 166 -1
184 9 10 38 11 132 5 66 -5 504 -9 973 -9z m-173 -275 c253 -5 578 -10 723
-10 168 0 262 -4 262 -10 0 -5 -7 -10 -15 -10 -8 0 -23 -9 -34 -21 -17 -19
-36 -22 -173 -30 -84 -6 -469 -10 -855 -10 -387 0 -705 -4 -708 -9 -11 -17 31
-34 94 -38 36 -2 210 -14 386 -28 266 -20 390 -24 731 -24 359 0 413 -2 424
-15 26 -31 10 -36 -305 -90 -55 -9 -129 -26 -165 -36 -111 -32 -253 -41 -465
-28 -104 6 -226 19 -270 29 -44 10 -141 21 -217 25 -131 7 -137 6 -147 -14
-13 -23 -20 -20 114 -46 44 -9 100 -22 125 -30 25 -7 86 -19 135 -25 50 -7
119 -19 154 -27 83 -18 375 -35 474 -27 53 5 77 3 77 -4 0 -20 -34 -29 -130
-36 -105 -7 -233 -22 -355 -40 -44 -7 -93 -9 -110 -5 -82 19 -190 51 -214 64
-15 7 -54 18 -86 24 -33 6 -87 22 -120 36 -33 13 -72 25 -87 25 -15 0 -39 12
-55 26 -15 14 -40 28 -55 31 -44 9 -68 44 -80 118 -9 51 -8 78 1 116 7 27 10
62 6 79 -13 60 -8 61 249 55 127 -3 438 -10 691 -15z m992 -176 c-3 -3 -12 -4
-19 -1 -8 3 -5 6 6 6 11 1 17 -2 13 -5z m41 -265 c3 -19 -34 -61 -93 -103 -24
-17 -78 -62 -119 -99 l-75 -69 -83 7 c-70 5 -100 2 -190 -19 -58 -14 -130 -36
-160 -48 -48 -20 -68 -22 -219 -21 -140 2 -176 5 -229 23 -35 12 -88 26 -119
32 -31 5 -72 18 -91 28 -19 10 -57 24 -85 30 -27 6 -58 20 -68 31 -10 10 -23
19 -30 19 -7 0 -30 5 -52 11 l-39 11 24 14 c31 17 96 9 127 -16 13 -10 44 -21
70 -25 27 -3 57 -12 68 -19 40 -26 111 -27 272 -7 87 12 199 25 248 31 50 6
119 19 155 29 36 11 85 22 110 25 24 4 50 12 57 18 7 6 43 17 80 25 38 7 84
22 104 32 19 10 69 26 110 34 41 9 90 23 109 31 44 20 114 17 118 -5z m-1943
2 c3 -5 1 -12 -5 -16 -5 -3 -10 1 -10 9 0 18 6 21 15 7z m1405 0 c0 -15 -29
-21 -93 -20 l-62 1 55 13 c68 16 100 18 100 6z m-1343 -101 c7 -20 18 -30 31
-30 11 0 29 -11 40 -25 11 -14 35 -32 54 -40 19 -7 40 -21 48 -29 7 -9 18 -16
25 -16 7 0 39 -13 71 -29 105 -51 198 -89 237 -96 47 -8 57 -29 26 -55 -31
-25 -90 -26 -160 -1 -57 19 -185 86 -207 108 -7 7 -18 13 -23 13 -5 0 -33 16
-62 36 -86 59 -124 119 -110 172 7 30 16 28 30 -8z m186 -17 c-7 -2 -19 -2
-25 0 -7 3 -2 5 12 5 14 0 19 -2 13 -5z m1902 -40 c52 -32 63 -59 44 -104 -7
-18 -12 -59 -11 -93 2 -64 -13 -126 -30 -126 -5 0 -29 16 -52 35 -24 19 -49
35 -56 35 -7 0 -23 11 -36 25 -23 25 -68 34 -79 15 -3 -5 16 -32 42 -59 52
-54 84 -95 95 -123 4 -10 14 -18 22 -18 20 0 46 -39 46 -67 0 -36 -28 -28 -78
22 -24 25 -49 45 -55 45 -6 0 -52 43 -103 95 l-92 95 39 31 c22 17 46 44 55
60 13 25 20 29 58 29 46 0 68 16 81 60 11 38 34 70 50 70 8 0 35 -12 60 -27z
m-2175 -133 c0 -6 14 -40 30 -75 34 -72 33 -111 -1 -175 -10 -19 -27 -53 -38
-76 -21 -45 -37 -56 -73 -47 -50 13 -75 41 -83 90 -3 27 -18 65 -32 87 l-25
39 26 24 c14 13 26 28 26 33 0 17 32 40 55 40 17 0 29 9 40 29 8 16 20 31 27
34 23 9 48 7 48 -3z m1599 -189 c22 -14 -6 -25 -58 -22 -59 3 -75 14 -31 22
53 10 74 10 89 0z m-485 -60 c8 -12 -18 -21 -64 -21 -37 0 -56 10 -43 24 10 9
101 7 107 -3z m1466 -62 c-13 -23 -43 -25 -60 -4 -10 12 -10 18 1 33 24 30 34
32 51 11 13 -16 15 -26 8 -40z m-1950 21 c47 -6 89 -16 93 -20 11 -10 -275
-34 -315 -26 -45 9 -72 35 -56 53 14 17 137 14 278 -7z"/>
<path d="M3882 10291 c-11 -6 -10 -9 5 -13 27 -7 94 3 87 13 -7 11 -75 11 -92
0z"/>
<path d="M3733 10243 c-28 -11 -13 -33 23 -33 40 0 77 16 69 31 -6 9 -70 11
-92 2z"/>
<path d="M3633 10190 c-32 -13 -29 -30 5 -30 26 1 62 20 62 34 0 9 -41 6 -67
-4z"/>
<path d="M5640 9960 c0 -5 5 -10 10 -10 6 0 10 5 10 10 0 6 -4 10 -10 10 -5 0
-10 -4 -10 -10z"/>
<path d="M4418 9793 c6 -2 18 -2 25 0 6 3 1 5 -13 5 -14 0 -19 -2 -12 -5z"/>
<path d="M4340 9735 c0 -13 4 -14 23 -4 33 17 33 19 4 19 -18 0 -27 -5 -27
-15z"/>
<path d="M2450 9409 c0 -5 5 -7 10 -4 6 3 10 8 10 11 0 2 -4 4 -10 4 -5 0 -10
-5 -10 -11z"/>
<path d="M2837 9384 c-4 -4 -7 -14 -7 -23 0 -11 3 -12 11 -4 6 6 10 16 7 23
-2 6 -7 8 -11 4z"/>
<path d="M2720 9200 c0 -11 5 -20 10 -20 6 0 10 9 10 20 0 11 -4 20 -10 20 -5
0 -10 -9 -10 -20z"/>
<path d="M2666 9125 c-9 -25 -7 -65 4 -65 14 0 23 46 12 65 -8 16 -9 16 -16 0z"/>
<path d="M2621 9041 c-16 -10 -20 -72 -5 -78 7 -2 14 13 16 39 6 51 6 49 -11
39z"/>
<path d="M3290 8505 c-10 -12 -9 -16 4 -21 22 -8 46 2 46 21 0 19 -34 20 -50
0z"/>
<path d="M6547 6733 c-9 -8 -9 -70 -1 -100 15 -56 49 -1 37 59 -6 30 -26 52
-36 41z"/>
<path d="M6329 6666 c-14 -29 -4 -89 16 -106 20 -16 65 15 65 45 0 24 -44 85
-61 85 -5 0 -14 -11 -20 -24z"/>
<path d="M2733 6623 c-7 -2 -22 -24 -32 -49 -11 -24 -24 -44 -29 -44 -11 0
-32 -53 -32 -81 0 -10 8 -23 18 -28 39 -21 107 72 126 172 6 34 5 37 -16 36
-13 0 -29 -3 -35 -6z"/>
<path d="M2974 6588 c-9 -18 -23 -38 -30 -45 -7 -8 -19 -32 -25 -54 -11 -36
-10 -42 8 -60 l20 -21 26 24 c48 44 69 167 31 182 -9 3 -20 -7 -30 -26z"/>
<path d="M6218 6589 c-24 -41 -23 -86 0 -98 38 -21 56 41 29 102 l-12 27 -17
-31z"/>
<path d="M6060 6581 c-11 -21 -14 -110 -4 -135 10 -25 43 -19 54 10 17 43 12
109 -8 127 -24 22 -29 21 -42 -2z"/>
<path d="M3207 6524 c-10 -11 -8 -44 2 -44 6 0 13 4 16 10 8 12 -9 43 -18 34z"/>
<path d="M4550 5954 c-63 -49 -169 -164 -177 -192 -3 -15 0 -30 10 -40 15 -15
20 -14 64 4 39 16 48 25 54 50 7 35 61 90 98 101 20 5 30 0 53 -28 44 -53 40
-59 -47 -74 -60 -10 -79 -23 -64 -42 11 -12 37 -14 150 -11 85 2 142 7 149 14
9 9 6 22 -9 52 -12 23 -27 45 -34 49 -8 4 -36 33 -62 63 -55 63 -91 90 -120
89 -11 0 -40 -16 -65 -35z"/>
<path d="M4410 4621 c0 -5 10 -11 23 -15 35 -9 40 -7 27 9 -13 16 -50 21 -50
6z"/>
<path d="M4485 4571 c-10 -17 4 -31 31 -31 19 0 25 5 22 18 -4 19 -43 29 -53
13z"/>
<path d="M5095 4351 c-3 -5 -1 -12 4 -15 12 -8 41 3 41 15 0 12 -37 12 -45 0z"/>
<path d="M3848 2233 c12 -2 30 -2 40 0 9 3 -1 5 -23 4 -22 0 -30 -2 -17 -4z"/>
<path d="M1966 10241 c-4 -7 -5 -15 -2 -18 9 -9 19 4 14 18 -4 11 -6 11 -12 0z"/>
<path d="M1862 10065 c0 -16 2 -22 5 -12 2 9 2 23 0 30 -3 6 -5 -1 -5 -18z"/>
<path d="M8582 5349 c-35 -23 -36 -25 -53 -154 -6 -49 -17 -122 -25 -161 -7
-39 -18 -138 -24 -220 -6 -82 -18 -182 -26 -223 -16 -84 -19 -277 -4 -286 6
-3 10 -3 10 2 0 37 23 133 40 167 11 23 24 76 30 117 5 41 14 95 20 120 6 24
22 107 34 184 13 77 29 160 36 185 15 55 19 265 5 279 -7 7 -21 3 -43 -10z"/>
<path d="M8226 5278 c-20 -48 -76 -281 -76 -316 0 -16 -9 -58 -19 -93 -20 -67
-30 -134 -57 -416 -23 -238 -13 -303 48 -303 21 0 24 12 38 155 6 61 17 142
25 180 9 39 20 113 26 165 6 52 17 127 25 165 8 39 22 159 30 268 13 157 14
200 4 212 -19 22 -29 18 -44 -17z"/>
<path d="M6899 5233 c-49 -65 -113 -211 -161 -364 -31 -99 -33 -112 -33 -259
0 -144 2 -161 28 -237 22 -64 36 -88 62 -108 19 -14 40 -25 49 -25 21 0 29 34
17 77 -6 21 -11 84 -11 139 0 137 8 148 110 146 40 -1 101 6 134 14 34 9 86
19 117 23 49 6 58 4 68 -11 6 -11 10 -22 8 -26 -3 -4 -8 -36 -11 -72 -4 -36
-11 -104 -16 -152 -6 -47 -7 -94 -4 -103 8 -20 64 -17 75 5 8 17 44 176 69
305 9 50 24 104 32 120 21 40 44 398 29 437 -30 78 -87 23 -115 -112 -8 -41
-22 -95 -31 -119 -8 -24 -15 -61 -15 -82 0 -21 -7 -56 -15 -77 l-16 -39 -72 2
c-40 1 -117 7 -172 13 -115 13 -128 22 -119 86 9 57 59 215 100 312 19 45 34
92 34 106 0 33 -29 58 -67 58 -26 0 -38 -10 -74 -57z"/>
<path d="M3157 5064 c-8 -8 1 -24 14 -24 5 0 9 7 9 15 0 15 -12 20 -23 9z"/>
<path d="M7633 4681 c-56 -26 -113 -91 -140 -159 -28 -70 -29 -96 -2 -158 33
-76 69 -99 178 -115 54 -8 79 -6 153 12 49 12 90 25 93 29 3 4 -23 13 -57 20
-34 6 -70 17 -80 24 -17 12 -16 14 8 24 13 7 30 12 36 12 7 0 33 15 59 33 113
76 95 209 -36 268 -65 28 -162 33 -212 10z m138 -131 c24 -14 25 -46 0 -59
-54 -29 -141 -21 -141 14 0 39 95 69 141 45z"/>
<path d="M9619 4602 c-89 -46 -81 -57 67 -102 39 -11 86 -31 103 -44 97 -72
211 -67 306 11 48 40 95 109 95 141 0 14 -14 15 -38 3 -57 -29 -152 -61 -185
-61 -21 0 -55 9 -77 20 -22 11 -45 20 -52 20 -7 0 -30 9 -51 20 -52 28 -104
25 -168 -8z"/>
<path d="M8960 4576 c-32 -19 -57 -31 -99 -47 -38 -14 -93 -62 -111 -97 -22
-44 -38 -124 -30 -151 14 -50 38 -87 83 -128 53 -49 90 -59 200 -56 71 2 85 6
145 40 57 33 72 47 100 98 29 53 32 67 28 117 -2 31 -15 81 -29 111 -21 46
-34 59 -83 88 -69 39 -161 51 -204 25z m63 -102 c142 -72 136 -200 -11 -229
-86 -18 -144 7 -157 67 -11 49 3 90 45 136 44 47 70 52 123 26z"/>
</g>
</svg>
